<svg width="36" height="36" viewBox="0 0 36 36" fill="none" xmlns="http://www.w3.org/2000/svg">
<circle cx="18" cy="18" r="17.5" fill="#133B5C" stroke="white"/>
<path d="M25.7531 10.5H11.25C10.0546 10.4998 8.87771 10.8054 7.82412 11.3896C6.77052 11.9737 5.87289 12.8183 5.21116 13.8482C4.54942 14.878 4.1441 16.0611 4.03129 17.2922C3.91848 18.5233 4.10167 19.7641 4.56456 20.9042C5.02745 22.0444 5.75568 23.0484 6.6844 23.827C7.61312 24.6055 8.71353 25.1344 9.88765 25.3666C11.0618 25.5988 12.2732 25.5271 13.414 25.1578C14.5548 24.7885 15.5897 24.1331 16.4265 23.25H20.5735C21.4101 24.133 22.4449 24.7883 23.5856 25.1576C24.7262 25.527 25.9375 25.5988 27.1115 25.3668C28.2855 25.1347 29.3859 24.606 30.3146 23.8277C31.2434 23.0494 31.9717 22.0456 32.4348 20.9058C32.8978 19.7659 33.0813 18.5252 32.9688 17.2942C32.8564 16.0633 32.4514 14.8802 31.7901 13.8502C31.1288 12.8203 30.2315 11.9754 29.1783 11.3909C28.125 10.8064 26.9484 10.5004 25.7531 10.5V10.5ZM15.2375 18.5625C15.2375 18.7117 15.1802 18.8548 15.0782 18.9602C14.9762 19.0657 14.8379 19.125 14.6937 19.125H12.3375V21.5625C12.3375 21.7117 12.2802 21.8548 12.1782 21.9602C12.0762 22.0657 11.9379 22.125 11.7937 22.125H10.7062C10.562 22.125 10.4237 22.0657 10.3217 21.9602C10.2198 21.8548 10.1625 21.7117 10.1625 21.5625V19.125H7.80622C7.66201 19.125 7.5237 19.0657 7.42173 18.9602C7.31976 18.8548 7.26247 18.7117 7.26247 18.5625V17.4375C7.26247 17.2883 7.31976 17.1452 7.42173 17.0398C7.5237 16.9343 7.66201 16.875 7.80622 16.875H10.1625V14.4375C10.1625 14.2883 10.2198 14.1452 10.3217 14.0398C10.4237 13.9343 10.562 13.875 10.7062 13.875H11.7937C11.9379 13.875 12.0762 13.9343 12.1782 14.0398C12.2802 14.1452 12.3375 14.2883 12.3375 14.4375V16.875H14.6937C14.8379 16.875 14.9762 16.9343 15.0782 17.0398C15.1802 17.1452 15.2375 17.2883 15.2375 17.4375V18.5625ZM25.025 22.125C24.6665 22.125 24.3161 22.015 24.018 21.809C23.7199 21.603 23.4876 21.3101 23.3504 20.9675C23.2133 20.6249 23.1774 20.2479 23.2473 19.8842C23.3172 19.5205 23.4899 19.1864 23.7433 18.9242C23.9968 18.662 24.3198 18.4834 24.6714 18.411C25.023 18.3387 25.3874 18.3758 25.7186 18.5177C26.0498 18.6596 26.3328 18.9 26.532 19.2083C26.7312 19.5166 26.8375 19.8792 26.8375 20.25C26.8375 20.7473 26.6465 21.2242 26.3066 21.5758C25.9667 21.9275 25.5057 22.125 25.025 22.125V22.125ZM27.925 17.625C27.5665 17.625 27.2161 17.515 26.918 17.309C26.6199 17.103 26.3876 16.8101 26.2504 16.4675C26.1133 16.1249 26.0774 15.7479 26.1473 15.3842C26.2172 15.0205 26.3899 14.6864 26.6433 14.4242C26.8968 14.162 27.2198 13.9834 27.5714 13.911C27.923 13.8387 28.2874 13.8758 28.6186 14.0177C28.9498 14.1596 29.2328 14.4 29.432 14.7083C29.6312 15.0166 29.7375 15.3792 29.7375 15.75C29.7375 16.2473 29.5465 16.7242 29.2066 17.0758C28.8667 17.4275 28.4057 17.625 27.925 17.625Z" fill="white"/>
</svg>
